<svg width="838" height="478" viewBox="0 0 838 478" fill="none" xmlns="http://www.w3.org/2000/svg">
<path d="M146 84.5C57.8027 93.2613 19 211.333 0.999996 276C-1.61305 289.6 38.2446 309 58.5 317C48.9 323.8 24.5 324.5 13.5 324C89.5 451.2 213.167 452 265.5 436.5C292.5 469 323.5 477 338.5 477C329.3 465.8 324.667 445.333 323.5 436.5C477.9 433.7 582.167 304.333 615 240C633.8 252.4 677.333 261.667 702.5 266.5C774 270 769.5 229 836.5 240L796 189.5C742 125.1 697.167 143.833 684 165C702.833 127 725.1 41.1 663.5 1.5C666.3 9.9 647.333 46.3333 637.5 62.5C583.9 97.3 582.667 173.833 591.5 203C564.667 210.833 500.6 226.1 459 224.5C407 222.5 371.534 194.984 350 172.5C282 101.5 258 73.3742 146 84.5Z" stroke="black"/>
</svg>
